/* XPM */
static char * tru2way_16x16_color_xpm[] = {
(char *)"16 16 81 1",
(char *)" 	c None",
(char *)".	c #FFFFFF",
(char *)"+	c #DAE3E2",
(char *)"@	c #DCE0E3",
(char *)"#	c #C7DCD5",
(char *)"$	c #41C1AE",
(char *)"%	c #ABD8DB",
(char *)"&	c #00B5CE",
(char *)"*	c #00B0E2",
(char *)"=	c #00A7E6",
(char *)"-	c #0F9CD3",
(char *)";	c #CBD9E0",
(char *)">	c #5583B4",
(char *)",	c #C8CDD8",
(char *)"'	c #B0D5BE",
(char *)")	c #55BF96",
(char *)"!	c #38BEA9",
(char *)"~	c #D6E0E1",
(char *)"{	c #ABD8DE",
(char *)"]	c #ABD6E3",
(char *)"^	c #ABD4E4",
(char *)"/	c #0F9BD2",
(char *)"(	c #96C2D7",
(char *)"_	c #4D7BAF",
(char *)":	c #596BA1",
(char *)"<	c #AEAEC4",
(char *)"[	c #98CD9C",
(char *)"}	c #5ABD7B",
(char *)"|	c #6AC49F",
(char *)"1	c #CEDEDB",
(char *)"2	c #2CA4D4",
(char *)"3	c #7CB7D3",
(char *)"4	c #D0D5DC",
(char *)"5	c #6C79A9",
(char *)"6	c #54508E",
(char *)"7	c #9286AC",
(char *)"8	c #82C77D",
(char *)"9	c #5DBC63",
(char *)"0	c #8ECBA0",
(char *)"a	c #DBE1DE",
(char *)"b	c #C7DEDF",
(char *)"c	c #47C3D5",
(char *)"d	c #39BDE2",
(char *)"e	c #39B6E5",
(char *)"f	c #0197D2",
(char *)"g	c #AFCEDC",
(char *)"h	c #DBDBDF",
(char *)"i	c #8986AD",
(char *)"j	c #513C80",
(char *)"k	c #7B6296",
(char *)"l	c #94CC91",
(char *)"m	c #7CC794",
(char *)"n	c #80D0D3",
(char *)"o	c #72CAE3",
(char *)"p	c #72C5E4",
(char *)"q	c #81C2DC",
(char *)"r	c #7774A3",
(char *)"s	c #8E7AA4",
(char *)"t	c #B1D4B5",
(char *)"u	c #63BF82",
(char *)"v	c #56BF95",
(char *)"w	c #B8D9D3",
(char *)"x	c #72CED1",
(char *)"y	c #39C1D1",
(char *)"z	c #BCC7D5",
(char *)"A	c #596AA0",
(char *)"B	c #5D5A94",
(char *)"C	c #ADA6BF",
(char *)"D	c #C9DCD1",
(char *)"E	c #5FC29B",
(char *)"F	c #2CBCA5",
(char *)"G	c #1CBBD0",
(char *)"H	c #72BDDB",
(char *)"I	c #B0CDDB",
(char *)"J	c #4274AD",
(char *)"K	c #6273A6",
(char *)"L	c #C9C9D4",
(char *)"M	c #DAE1DF",
(char *)"N	c #4CC3B1",
(char *)"O	c #5F8AB8",
(char *)"P	c #DADCDF",
(char *)"................",
(char *)"................",
(char *)"................",
(char *)"................",
(char *)"....+......@....",
(char *)"...#$%&*=-;>,...",
(char *)"..')!~{]^/(_:<..",
(char *)".[}|1....234567.",
(char *)"890a.bcdefg.hijk",
(char *)"l9ma.n&opq..hrjs",
(char *)".tuvwxy....zABC.",
(char *)"..DEFxGopHIJKL..",
(char *)"...MNx&*=f3OP...",
(char *)"................",
(char *)"................",
(char *)"................"};
